<svg width="160" height="160" viewBox="0 0 160 160" fill="none" xmlns="http://www.w3.org/2000/svg">
<g clip-path="url(#clip0)">
<mask id="mask0" mask-type="alpha" maskUnits="userSpaceOnUse" x="1" y="0" width="67" height="49">
<path d="M29.8819 5.28179C17.1225 7.73604 7.14158 17.7701 4.70349 30.6032C3.56825 36.5741 2.63873 42.5731 1.91492 48.5925C14.5244 47.216 30.047 43.5333 43.2508 34.4569C54.2248 26.9129 60.0483 14.0517 67.1568 0.845764C54.6692 1.43315 42.2121 2.91183 29.8819 5.28179Z" fill="white"/>
</mask>
<g mask="url(#mask0)">
<path fill-rule="evenodd" clip-rule="evenodd" d="M29.8819 5.28179C17.1225 7.73604 7.14158 17.7701 4.70349 30.6032C3.56825 36.5741 2.63873 42.5731 1.91492 48.5925C14.5244 47.216 30.047 43.5333 43.2508 34.4569C54.2248 26.9129 60.0483 14.0517 67.1568 0.845764C54.6692 1.43315 42.2121 2.91183 29.8819 5.28179Z" fill="url(#paint0_linear)"/>
</g>
<mask id="mask1" mask-type="alpha" maskUnits="userSpaceOnUse" x="0" y="0" width="145" height="115">
<path d="M79.0095 0.554626C74.3416 0.562288 69.6737 0.697642 65.0083 0.95558C58.1486 13.7095 52.5079 26.1186 41.9073 33.4048C29.1962 42.1415 14.273 45.7194 2.10286 47.0704C-0.716187 69.4293 -0.698409 92.0564 2.15873 114.408C13.7092 98.3567 28.7543 91.2417 39.266 89.8115C75.8984 84.8367 87.4235 60.1027 103.944 33.7368C113.041 19.2156 128.978 13.9163 144.028 12.55C139.891 8.92358 134.801 6.36463 129.168 5.2818C112.94 2.16355 96.4902 0.585273 80.0381 0.554626H79.0095Z" fill="white"/>
</mask>
<g mask="url(#mask1)">
<path fill-rule="evenodd" clip-rule="evenodd" d="M79.0095 0.554626C74.3416 0.562288 69.6737 0.697642 65.0083 0.95558C58.1486 13.7095 52.5079 26.1186 41.9073 33.4048C29.1962 42.1415 14.273 45.7194 2.10286 47.0704C-0.716187 69.4293 -0.698409 92.0564 2.15873 114.408C13.7092 98.3567 28.7543 91.2417 39.266 89.8115C75.8984 84.8367 87.4235 60.1027 103.944 33.7368C113.041 19.2156 128.978 13.9163 144.028 12.55C139.891 8.92358 134.801 6.36463 129.168 5.2818C112.94 2.16355 96.4902 0.585273 80.0381 0.554626H79.0095Z" fill="url(#paint1_linear)"/>
</g>
<mask id="mask2" mask-type="alpha" maskUnits="userSpaceOnUse" x="0" y="11" width="160" height="145">
<path d="M103.944 32.4087C87.4235 58.7772 79.5226 77.9821 42.8927 82.9621C31.9822 84.4408 12.7365 85.0078 0.868591 102.034C1.63558 111.55 2.91558 121.032 4.70351 130.443C7.10859 143.113 16.8711 153.052 29.3994 155.665C31.6216 136.738 38.8038 119.758 58.7353 107.732C88.4343 89.8115 100.312 100.762 131.002 91.8035C142.857 88.3431 152.056 82.3288 159.012 76.0157C158.756 60.805 157.199 45.6096 154.344 30.6032C152.864 22.7935 148.589 16.0233 142.593 11.3651C127.972 12.9357 112.752 18.3498 103.944 32.4087Z" fill="white"/>
</mask>
<g mask="url(#mask2)">
<path fill-rule="evenodd" clip-rule="evenodd" d="M103.944 32.4087C87.4235 58.7772 79.5226 77.9821 42.8927 82.9621C31.9822 84.4408 12.7365 85.0078 0.868591 102.034C1.63558 111.55 2.91558 121.032 4.70351 130.443C7.10859 143.113 16.8711 153.052 29.3994 155.665C31.6216 136.738 38.8038 119.758 58.7353 107.732C88.4343 89.8115 100.312 100.762 131.002 91.8035C142.857 88.3431 152.056 82.3288 159.012 76.0157C158.756 60.805 157.199 45.6096 154.344 30.6032C152.864 22.7935 148.589 16.0233 142.593 11.3651C127.972 12.9357 112.752 18.3498 103.944 32.4087Z" fill="url(#paint2_linear)"/>
</g>
<mask id="mask3" mask-type="alpha" maskUnits="userSpaceOnUse" x="90" y="119" width="67" height="42">
<path d="M126.024 123.042C102.499 131.687 93.6178 150.435 90.4889 160.262C103.446 159.721 116.373 158.221 129.168 155.762C141.93 153.308 151.909 143.274 154.344 130.443C155.043 126.768 155.665 123.083 156.208 119.39C155.126 119.367 154.024 119.354 152.907 119.354C143.86 119.354 133.801 120.179 126.024 123.042Z" fill="white"/>
</mask>
<g mask="url(#mask3)">
<path fill-rule="evenodd" clip-rule="evenodd" d="M126.024 123.042C102.499 131.687 93.6178 150.435 90.4889 160.262C103.446 159.721 116.373 158.221 129.168 155.762C141.93 153.308 151.909 143.274 154.344 130.443C155.043 126.768 155.665 123.083 156.208 119.39C155.126 119.367 154.024 119.354 152.907 119.354C143.86 119.354 133.801 120.179 126.024 123.042Z" fill="url(#paint3_linear)"/>
</g>
<mask id="mask4" mask-type="alpha" maskUnits="userSpaceOnUse" x="27" y="74" width="133" height="87">
<path d="M130.596 90.8152C99.4641 99.9018 87.4159 88.7951 57.2876 106.971C37.1962 119.091 29.8743 136.177 27.5708 155.228C28.3302 155.433 29.0997 155.611 29.8819 155.762C46.1079 158.88 62.5524 160.459 79.0019 160.489H80.0483C84.6273 160.482 89.2064 160.351 93.7803 160.104C96.8127 150.698 105.305 133 127.581 124.809C135.784 121.793 146.644 121.15 155.916 121.323C158.004 107.803 159.05 94.1633 159.05 80.5232C159.05 78.6206 159.03 76.718 158.989 74.8154C151.937 81.2179 142.611 87.3037 130.596 90.8152Z" fill="white"/>
</mask>
<g mask="url(#mask4)">
<path fill-rule="evenodd" clip-rule="evenodd" d="M130.596 90.8152C99.4641 99.9018 87.4159 88.7951 57.2876 106.971C37.1962 119.091 29.8743 136.177 27.5708 155.228C28.3302 155.433 29.0997 155.611 29.8819 155.762C46.1079 158.88 62.5524 160.459 79.0019 160.489H80.0483C84.6273 160.482 89.2064 160.351 93.7803 160.104C96.8127 150.698 105.305 133 127.581 124.809C135.784 121.793 146.644 121.15 155.916 121.323C158.004 107.803 159.05 94.1633 159.05 80.5232C159.05 78.6206 159.03 76.718 158.989 74.8154C151.937 81.2179 142.611 87.3037 130.596 90.8152Z" fill="url(#paint4_linear)"/>
</g>
<path d="M21.03 56V31.5H30.97C32.7667 31.5 34.4583 31.8267 36.045 32.48C37.6317 33.11 38.9967 33.9733 40.14 35.07C41.3067 36.1667 42.2283 37.4733 42.905 38.99C43.5817 40.4833 43.92 42.0933 43.92 43.82C43.92 45.5 43.5817 47.0867 42.905 48.58C42.2283 50.0733 41.3067 51.3683 40.14 52.465C38.9967 53.5617 37.6317 54.425 36.045 55.055C34.4583 55.685 32.7667 56 30.97 56H21.03ZM30.83 36.82H27.05V50.68H30.83C31.7867 50.68 32.685 50.505 33.525 50.155C34.365 49.805 35.0883 49.3267 35.695 48.72C36.325 48.09 36.815 47.355 37.165 46.515C37.515 45.675 37.69 44.7767 37.69 43.82C37.69 42.84 37.515 41.93 37.165 41.09C36.815 40.2267 36.325 39.48 35.695 38.85C35.0883 38.22 34.365 37.73 33.525 37.38C32.685 37.0067 31.7867 36.82 30.83 36.82ZM63.8041 53.55C62.6374 54.53 61.4358 55.2417 60.1991 55.685C58.9858 56.1283 57.6091 56.35 56.0691 56.35C54.6691 56.35 53.3508 56.105 52.1141 55.615C50.8774 55.125 49.8041 54.4483 48.8941 53.585C48.0074 52.7217 47.2958 51.7067 46.7591 50.54C46.2458 49.35 45.9891 48.09 45.9891 46.76C45.9891 45.43 46.2341 44.1817 46.7241 43.015C47.2374 41.825 47.9258 40.7983 48.7891 39.935C49.6524 39.0717 50.6674 38.395 51.8341 37.905C53.0241 37.415 54.2958 37.17 55.6491 37.17C57.0024 37.17 58.2508 37.4267 59.3941 37.94C60.5374 38.4533 61.5174 39.1533 62.3341 40.04C63.1741 40.9267 63.8274 42 64.2941 43.26C64.7608 44.4967 64.9941 45.8383 64.9941 47.285V48.685H51.7991C52.1724 49.5483 52.7558 50.26 53.5491 50.82C54.3424 51.3567 55.2758 51.625 56.3491 51.625C57.1191 51.625 57.8191 51.5083 58.4491 51.275C59.0791 51.0183 59.6158 50.6683 60.0591 50.225L63.8041 53.55ZM55.5441 41.79C54.6108 41.79 53.8058 42.0467 53.1291 42.56C52.4524 43.0733 51.9741 43.7967 51.6941 44.73H59.4291C59.1258 43.8433 58.6241 43.1317 57.9241 42.595C57.2474 42.0583 56.4541 41.79 55.5441 41.79ZM66.3804 53.935L69.0754 50.12C70.2421 50.82 71.3038 51.3333 72.2604 51.66C73.2171 51.9633 74.1621 52.115 75.0954 52.115C76.0288 52.115 76.7638 51.9867 77.3004 51.73C77.8604 51.45 78.1404 51.0883 78.1404 50.645C78.1404 50.295 77.9888 50.015 77.6854 49.805C77.3821 49.5717 76.9038 49.4083 76.2504 49.315L72.5754 48.755C70.7554 48.475 69.3554 47.8683 68.3754 46.935C67.3954 45.9783 66.9054 44.7417 66.9054 43.225C66.9054 41.3583 67.6171 39.8883 69.0404 38.815C70.4638 37.7417 72.4121 37.205 74.8854 37.205C76.2154 37.205 77.5454 37.4033 78.8754 37.8C80.2288 38.1733 81.4771 38.7217 82.6204 39.445L79.9254 43.085C78.9221 42.5017 77.9654 42.0817 77.0554 41.825C76.1454 41.545 75.2354 41.405 74.3254 41.405C73.6021 41.405 73.0188 41.5333 72.5754 41.79C72.1321 42.0233 71.9104 42.3383 71.9104 42.735C71.9104 43.1083 72.0738 43.4117 72.4004 43.645C72.7271 43.855 73.2871 44.0183 74.0804 44.135L77.7554 44.695C79.5754 44.9517 80.9754 45.5583 81.9554 46.515C82.9588 47.4483 83.4604 48.6383 83.4604 50.085C83.4604 50.9717 83.2504 51.8 82.8304 52.57C82.4104 53.34 81.8271 54.005 81.0804 54.565C80.3571 55.125 79.4821 55.5683 78.4554 55.895C77.4288 56.1983 76.3204 56.35 75.1304 56.35C73.3804 56.35 71.7471 56.1517 70.2304 55.755C68.7371 55.335 67.4538 54.7283 66.3804 53.935ZM88.458 35.77C87.5947 35.77 86.8597 35.4667 86.253 34.86C85.6464 34.2533 85.343 33.5183 85.343 32.655C85.343 31.7917 85.6464 31.0567 86.253 30.45C86.8597 29.8433 87.5947 29.54 88.458 29.54C89.3214 29.54 90.0564 29.8433 90.663 30.45C91.2697 31.0567 91.573 31.7917 91.573 32.655C91.573 33.5183 91.2697 34.2533 90.663 34.86C90.0564 35.4667 89.3214 35.77 88.458 35.77ZM91.293 37.485V56H85.623V37.485H91.293ZM103.358 56.07C102.052 56.07 100.815 55.825 99.6482 55.335C98.5049 54.845 97.5132 54.18 96.6732 53.34C95.8332 52.4767 95.1682 51.4733 94.6782 50.33C94.1882 49.1633 93.9432 47.9267 93.9432 46.62C93.9432 45.3133 94.1882 44.0883 94.6782 42.945C95.1915 41.8017 95.8799 40.81 96.7432 39.97C97.6065 39.13 98.6215 38.465 99.7882 37.975C100.978 37.485 102.238 37.24 103.568 37.24C104.408 37.24 105.225 37.345 106.018 37.555C106.812 37.765 107.547 38.0683 108.223 38.465V37.485H113.823V55.825C113.823 58.3217 112.995 60.235 111.338 61.565C109.682 62.9183 107.313 63.595 104.233 63.595C102.763 63.595 101.352 63.455 99.9982 63.175C98.6449 62.895 97.4199 62.4983 96.3232 61.985L98.2132 57.575C99.2165 58.0417 100.208 58.3917 101.188 58.625C102.168 58.8583 103.148 58.975 104.128 58.975C105.458 58.975 106.462 58.7067 107.138 58.17C107.815 57.6333 108.153 56.8283 108.153 55.755V54.6C107.453 55.0667 106.695 55.4283 105.878 55.685C105.062 55.9417 104.222 56.07 103.358 56.07ZM99.5082 46.62C99.5082 47.95 99.9749 49.07 100.908 49.98C101.842 50.8667 102.985 51.31 104.338 51.31C105.108 51.31 105.808 51.1933 106.438 50.96C107.092 50.7267 107.663 50.3883 108.153 49.945V43.4C107.663 42.98 107.092 42.6533 106.438 42.42C105.785 42.1633 105.097 42.035 104.373 42.035C103.02 42.035 101.865 42.4783 100.908 43.365C99.9749 44.2517 99.5082 45.3367 99.5082 46.62ZM117.308 56V37.485H122.978V38.745C123.654 38.2317 124.413 37.835 125.253 37.555C126.116 37.275 127.014 37.135 127.948 37.135C130.118 37.135 131.891 37.835 133.268 39.235C134.644 40.635 135.333 42.42 135.333 44.59V56H129.663V45.36C129.663 44.3567 129.348 43.5517 128.718 42.945C128.111 42.315 127.306 42 126.303 42C125.579 42 124.938 42.1283 124.378 42.385C123.818 42.6417 123.351 43.0033 122.978 43.47V56H117.308ZM25.225 73.765C25.735 73.765 26.205 73.655 26.635 73.435C27.075 73.215 27.47 72.89 27.82 72.46L29.515 74.125C29.025 74.735 28.38 75.225 27.58 75.595C26.79 75.965 25.975 76.15 25.135 76.15C24.345 76.15 23.6 76.01 22.9 75.73C22.21 75.45 21.615 75.07 21.115 74.59C20.615 74.11 20.22 73.54 19.93 72.88C19.64 72.22 19.495 71.51 19.495 70.75C19.495 69.99 19.64 69.28 19.93 68.62C20.22 67.95 20.615 67.375 21.115 66.895C21.625 66.415 22.225 66.035 22.915 65.755C23.605 65.475 24.345 65.335 25.135 65.335C25.565 65.335 25.995 65.385 26.425 65.485C26.855 65.585 27.265 65.725 27.655 65.905C28.045 66.075 28.405 66.29 28.735 66.55C29.065 66.8 29.35 67.08 29.59 67.39L27.85 69.1C27.48 68.64 27.065 68.295 26.605 68.065C26.155 67.825 25.665 67.705 25.135 67.705C24.715 67.705 24.32 67.785 23.95 67.945C23.59 68.095 23.275 68.305 23.005 68.575C22.745 68.845 22.535 69.17 22.375 69.55C22.225 69.92 22.15 70.32 22.15 70.75C22.15 71.18 22.225 71.58 22.375 71.95C22.535 72.31 22.75 72.625 23.02 72.895C23.3 73.165 23.625 73.38 23.995 73.54C24.375 73.69 24.785 73.765 25.225 73.765ZM32.5643 68.065V72.625C32.5643 73.055 32.6943 73.405 32.9543 73.675C33.2243 73.935 33.5743 74.065 34.0043 74.065C34.3143 74.065 34.5893 74.01 34.8293 73.9C35.0693 73.79 35.2693 73.635 35.4293 73.435V68.065H37.8593V76H35.4293V75.46C35.1393 75.68 34.8093 75.85 34.4393 75.97C34.0793 76.09 33.6993 76.15 33.2993 76.15C32.3693 76.15 31.6093 75.85 31.0193 75.25C30.4293 74.65 30.1343 73.885 30.1343 72.955V68.065H32.5643ZM38.7493 75.115L39.9043 73.48C40.4043 73.78 40.8593 74 41.2693 74.14C41.6793 74.27 42.0843 74.335 42.4843 74.335C42.8843 74.335 43.1993 74.28 43.4293 74.17C43.6693 74.05 43.7893 73.895 43.7893 73.705C43.7893 73.555 43.7243 73.435 43.5943 73.345C43.4643 73.245 43.2593 73.175 42.9793 73.135L41.4043 72.895C40.6243 72.775 40.0243 72.515 39.6043 72.115C39.1843 71.705 38.9743 71.175 38.9743 70.525C38.9743 69.725 39.2793 69.095 39.8893 68.635C40.4993 68.175 41.3343 67.945 42.3943 67.945C42.9643 67.945 43.5343 68.03 44.1043 68.2C44.6843 68.36 45.2193 68.595 45.7093 68.905L44.5543 70.465C44.1243 70.215 43.7143 70.035 43.3243 69.925C42.9343 69.805 42.5443 69.745 42.1543 69.745C41.8443 69.745 41.5943 69.8 41.4043 69.91C41.2143 70.01 41.1193 70.145 41.1193 70.315C41.1193 70.475 41.1893 70.605 41.3293 70.705C41.4693 70.795 41.7093 70.865 42.0493 70.915L43.6243 71.155C44.4043 71.265 45.0043 71.525 45.4243 71.935C45.8543 72.335 46.0693 72.845 46.0693 73.465C46.0693 73.845 45.9793 74.2 45.7993 74.53C45.6193 74.86 45.3693 75.145 45.0493 75.385C44.7393 75.625 44.3643 75.815 43.9243 75.955C43.4843 76.085 43.0093 76.15 42.4993 76.15C41.7493 76.15 41.0493 76.065 40.3993 75.895C39.7593 75.715 39.2093 75.455 38.7493 75.115ZM47.9746 73.585V70.09H46.3696V68.065H47.9746V66.025L50.4046 65.5V68.065H52.6246V70.09H50.4046V73.105C50.4046 73.455 50.4796 73.705 50.6296 73.855C50.7896 73.995 51.0646 74.065 51.4546 74.065C51.6446 74.065 51.8246 74.055 51.9946 74.035C52.1646 74.005 52.3496 73.96 52.5496 73.9V75.865C52.3296 75.935 52.0496 75.99 51.7096 76.03C51.3696 76.08 51.0846 76.105 50.8546 76.105C49.9046 76.105 49.1846 75.895 48.6946 75.475C48.2146 75.045 47.9746 74.415 47.9746 73.585ZM53.2132 72.04C53.2132 71.47 53.3232 70.935 53.5432 70.435C53.7732 69.925 54.0782 69.485 54.4582 69.115C54.8482 68.745 55.3032 68.455 55.8232 68.245C56.3532 68.025 56.9182 67.915 57.5182 67.915C58.1182 67.915 58.6782 68.025 59.1982 68.245C59.7282 68.455 60.1832 68.745 60.5632 69.115C60.9532 69.485 61.2582 69.925 61.4782 70.435C61.7082 70.935 61.8232 71.47 61.8232 72.04C61.8232 72.61 61.7082 73.15 61.4782 73.66C61.2582 74.16 60.9532 74.595 60.5632 74.965C60.1832 75.335 59.7282 75.625 59.1982 75.835C58.6782 76.045 58.1182 76.15 57.5182 76.15C56.9182 76.15 56.3532 76.045 55.8232 75.835C55.3032 75.625 54.8482 75.335 54.4582 74.965C54.0782 74.595 53.7732 74.16 53.5432 73.66C53.3232 73.15 53.2132 72.61 53.2132 72.04ZM57.5182 74.05C58.0582 74.05 58.5132 73.855 58.8832 73.465C59.2632 73.075 59.4532 72.6 59.4532 72.04C59.4532 71.47 59.2632 70.99 58.8832 70.6C58.5132 70.21 58.0582 70.015 57.5182 70.015C56.9782 70.015 56.5182 70.21 56.1382 70.6C55.7682 70.99 55.5832 71.47 55.5832 72.04C55.5832 72.6 55.7682 73.075 56.1382 73.465C56.5182 73.855 56.9782 74.05 57.5182 74.05ZM62.9629 76V68.065H65.3929V68.575C65.6729 68.355 65.9779 68.19 66.3079 68.08C66.6479 67.97 67.0029 67.915 67.3729 67.915C67.8629 67.915 68.3079 68.015 68.7079 68.215C69.1179 68.405 69.4579 68.67 69.7279 69.01C70.0479 68.66 70.4279 68.39 70.8679 68.2C71.3079 68.01 71.7879 67.915 72.3079 67.915C73.2079 67.915 73.9429 68.215 74.5129 68.815C75.0929 69.415 75.3829 70.18 75.3829 71.11V76H72.9529V71.44C72.9529 71.01 72.8329 70.665 72.5929 70.405C72.3629 70.135 72.0529 70 71.6629 70C71.3929 70 71.1479 70.055 70.9279 70.165C70.7079 70.265 70.5179 70.41 70.3579 70.6C70.3679 70.68 70.3729 70.765 70.3729 70.855C70.3829 70.935 70.3879 71.02 70.3879 71.11V76H67.9579V71.44C67.9579 71.01 67.8379 70.665 67.5979 70.405C67.3679 70.135 67.0579 70 66.6679 70C66.3979 70 66.1529 70.05 65.9329 70.15C65.7229 70.24 65.5429 70.38 65.3929 70.57V76H62.9629ZM78.0353 67.33C77.6653 67.33 77.3503 67.2 77.0903 66.94C76.8303 66.68 76.7003 66.365 76.7003 65.995C76.7003 65.625 76.8303 65.31 77.0903 65.05C77.3503 64.79 77.6653 64.66 78.0353 64.66C78.4053 64.66 78.7203 64.79 78.9803 65.05C79.2403 65.31 79.3703 65.625 79.3703 65.995C79.3703 66.365 79.2403 66.68 78.9803 66.94C78.7203 67.2 78.4053 67.33 78.0353 67.33ZM79.2503 68.065V76H76.8203V68.065H79.2503ZM80.3711 76V74.305L84.0611 70.09H80.4011V68.065H87.2111V69.76L83.5061 73.975H87.3311V76H80.3711ZM90.9862 76.135C90.1462 76.135 89.4562 75.905 88.9162 75.445C88.3762 74.985 88.1062 74.395 88.1062 73.675C88.1062 72.925 88.3912 72.34 88.9612 71.92C89.5412 71.5 90.3462 71.29 91.3762 71.29C91.6862 71.29 91.9912 71.31 92.2912 71.35C92.5912 71.39 92.8862 71.445 93.1762 71.515V71.125C93.1762 70.725 93.0462 70.43 92.7862 70.24C92.5362 70.04 92.1612 69.94 91.6612 69.94C91.3512 69.94 91.0012 69.99 90.6112 70.09C90.2212 70.19 89.7712 70.35 89.2612 70.57L88.3912 68.785C89.0312 68.495 89.6562 68.28 90.2662 68.14C90.8862 67.99 91.4962 67.915 92.0962 67.915C93.1962 67.915 94.0512 68.18 94.6612 68.71C95.2712 69.23 95.5762 69.965 95.5762 70.915V76H93.1762V75.52C92.8562 75.74 92.5162 75.9 92.1562 76C91.8062 76.09 91.4162 76.135 90.9862 76.135ZM90.4162 73.63C90.4162 73.88 90.5262 74.075 90.7462 74.215C90.9662 74.355 91.2712 74.425 91.6612 74.425C91.9512 74.425 92.2212 74.395 92.4712 74.335C92.7312 74.275 92.9662 74.18 93.1762 74.05V73.03C92.9462 72.97 92.7112 72.925 92.4712 72.895C92.2312 72.865 91.9862 72.85 91.7362 72.85C91.3162 72.85 90.9912 72.92 90.7612 73.06C90.5312 73.19 90.4162 73.38 90.4162 73.63ZM97.8525 73.585V70.09H96.2475V68.065H97.8525V66.025L100.283 65.5V68.065H102.503V70.09H100.283V73.105C100.283 73.455 100.358 73.705 100.508 73.855C100.668 73.995 100.943 74.065 101.333 74.065C101.523 74.065 101.703 74.055 101.873 74.035C102.043 74.005 102.228 73.96 102.428 73.9V75.865C102.208 75.935 101.928 75.99 101.588 76.03C101.248 76.08 100.963 76.105 100.733 76.105C99.7825 76.105 99.0625 75.895 98.5725 75.475C98.0925 75.045 97.8525 74.415 97.8525 73.585ZM104.666 67.33C104.296 67.33 103.981 67.2 103.721 66.94C103.461 66.68 103.331 66.365 103.331 65.995C103.331 65.625 103.461 65.31 103.721 65.05C103.981 64.79 104.296 64.66 104.666 64.66C105.036 64.66 105.351 64.79 105.611 65.05C105.871 65.31 106.001 65.625 106.001 65.995C106.001 66.365 105.871 66.68 105.611 66.94C105.351 67.2 105.036 67.33 104.666 67.33ZM105.881 68.065V76H103.451V68.065H105.881ZM107.017 72.04C107.017 71.47 107.127 70.935 107.347 70.435C107.577 69.925 107.882 69.485 108.262 69.115C108.652 68.745 109.107 68.455 109.627 68.245C110.157 68.025 110.722 67.915 111.322 67.915C111.922 67.915 112.482 68.025 113.002 68.245C113.532 68.455 113.987 68.745 114.367 69.115C114.757 69.485 115.062 69.925 115.282 70.435C115.512 70.935 115.627 71.47 115.627 72.04C115.627 72.61 115.512 73.15 115.282 73.66C115.062 74.16 114.757 74.595 114.367 74.965C113.987 75.335 113.532 75.625 113.002 75.835C112.482 76.045 111.922 76.15 111.322 76.15C110.722 76.15 110.157 76.045 109.627 75.835C109.107 75.625 108.652 75.335 108.262 74.965C107.882 74.595 107.577 74.16 107.347 73.66C107.127 73.15 107.017 72.61 107.017 72.04ZM111.322 74.05C111.862 74.05 112.317 73.855 112.687 73.465C113.067 73.075 113.257 72.6 113.257 72.04C113.257 71.47 113.067 70.99 112.687 70.6C112.317 70.21 111.862 70.015 111.322 70.015C110.782 70.015 110.322 70.21 109.942 70.6C109.572 70.99 109.387 71.47 109.387 72.04C109.387 72.6 109.572 73.075 109.942 73.465C110.322 73.855 110.782 74.05 111.322 74.05ZM116.767 76V68.065H119.197V68.605C119.487 68.385 119.812 68.215 120.172 68.095C120.542 67.975 120.927 67.915 121.327 67.915C122.257 67.915 123.017 68.215 123.607 68.815C124.197 69.415 124.492 70.18 124.492 71.11V76H122.062V71.44C122.062 71.01 121.927 70.665 121.657 70.405C121.397 70.135 121.052 70 120.622 70C120.312 70 120.037 70.055 119.797 70.165C119.557 70.275 119.357 70.43 119.197 70.63V76H116.767Z" fill="white"/>
<g clip-path="url(#clip1)">
<path d="M112.144 94.5651C100.884 96.7627 91.8098 105.814 89.5895 117.04C85.3981 138.224 104.509 154.015 118.907 151.783C123.574 151.058 125.862 145.598 123.721 141.396C121.104 136.253 124.843 130.249 130.62 130.249H139.649C143.704 130.249 146.989 126.896 147 122.851C146.944 104.998 130.699 90.9514 112.144 94.5651ZM99.8754 130.249C97.8704 130.249 96.2504 128.629 96.2504 126.624C96.2504 124.619 97.8704 122.999 99.8754 122.999C101.881 122.999 103.5 124.619 103.5 126.624C103.5 128.629 101.881 130.249 99.8754 130.249ZM103.5 115.749C101.495 115.749 99.8754 114.129 99.8754 112.124C99.8754 110.119 101.495 108.499 103.5 108.499C105.506 108.499 107.125 110.119 107.125 112.124C107.125 114.129 105.506 115.749 103.5 115.749ZM118 108.499C115.995 108.499 114.375 106.879 114.375 104.874C114.375 102.869 115.995 101.249 118 101.249C120.006 101.249 121.625 102.869 121.625 104.874C121.625 106.879 120.006 108.499 118 108.499ZM132.5 115.749C130.495 115.749 128.875 114.129 128.875 112.124C128.875 110.119 130.495 108.499 132.5 108.499C134.506 108.499 136.125 110.119 136.125 112.124C136.125 114.129 134.506 115.749 132.5 115.749Z" fill="white"/>
</g>
</g>
<defs>
<linearGradient id="paint0_linear" x1="61.0013" y1="14.5395" x2="14.3645" y2="30.248" gradientUnits="userSpaceOnUse">
<stop stop-color="#121C28"/>
<stop offset="1" stop-color="#2A2367"/>
</linearGradient>
<linearGradient id="paint1_linear" x1="114.404" y1="20.2994" x2="39.0881" y2="89.0192" gradientUnits="userSpaceOnUse">
<stop stop-color="#28235B"/>
<stop offset="1" stop-color="#E6007E"/>
</linearGradient>
<linearGradient id="paint2_linear" x1="147.997" y1="55.3693" x2="21.0256" y2="123.426" gradientUnits="userSpaceOnUse">
<stop stop-color="#FF9500"/>
<stop offset="1" stop-color="#E6007E"/>
</linearGradient>
<linearGradient id="paint3_linear" x1="154.688" y1="138.523" x2="112.34" y2="156.725" gradientUnits="userSpaceOnUse">
<stop stop-color="#E6332A"/>
<stop offset="1" stop-color="#FF645B"/>
</linearGradient>
<linearGradient id="paint4_linear" x1="132.879" y1="107.08" x2="84.638" y2="147.806" gradientUnits="userSpaceOnUse">
<stop stop-color="#FF9500"/>
<stop offset="1" stop-color="#FF645B"/>
</linearGradient>
<clipPath id="clip0">
<rect width="160" height="160" fill="white"/>
</clipPath>
<clipPath id="clip1">
<rect width="58" height="58" fill="white" transform="translate(89 94)"/>
</clipPath>
</defs>
</svg>
